<?xml version='1.0' encoding='iso-8859-1'?>
<!DOCTYPE svg PUBLIC '-//W3C//DTD SVG 1.1//EN' 'http://www.w3.org/Graphics/SVG/1.1/DTD/svg11.dtd'>
<svg version="1.1" xmlns="http://www.w3.org/2000/svg" viewBox="0 0 264.355 264.355" xmlns:xlink="http://www.w3.org/1999/xlink" enable-background="new 0 0 264.355 264.355">
  <g>
    <path d="m259.081,76.652l-53.812-53.812c-3.407-3.407-7.936-5.283-12.754-5.283s-9.347,1.876-12.753,5.283l-12.646,12.645c-1.946,1.946-3.333,4.235-4.203,6.67l-59.168-10.593c-0.004-0.001-0.009-0.001-0.013-0.002-26.604-5.281-52.579,12.015-57.944,38.622l-2.729,13.537c-3.014,14.949 6.697,29.562 21.646,32.576 14.95,3.012 29.563-6.697 32.577-21.646l1.668-8.278 26.533,2.32 69.29,69.29 12.558,12.558c2.543,2.543 2.542,6.681 0,9.224-2.542,2.542-6.68,2.543-9.223,0l-33.639-33.639c-2.343-2.343-6.143-2.343-8.485,0-2.343,2.343-2.343,6.142 0,8.485l33.639,33.639c1.232,1.232 1.91,2.87 1.91,4.612 0,1.742-0.678,3.379-1.91,4.611-2.544,2.543-6.681,2.542-9.223,0l-33.639-33.639c-2.343-2.343-6.143-2.343-8.485,0-2.343,2.343-2.343,6.142 0,8.485l33.639,33.639c2.543,2.542 2.543,6.68 0,9.223-1.232,1.232-2.87,1.91-4.611,1.91-1.742,0-3.38-0.678-4.612-1.91l-33.639-33.639c-2.343-2.343-6.143-2.343-8.485,0-2.343,2.343-2.343,6.142 0,8.485l33.639,33.639c2.543,2.543 2.542,6.681 0,9.224-2.542,2.542-6.68,2.543-9.223,0l-119.023-119.021-15.718-15.718c-2.343-2.343-6.143-2.343-8.485,0-2.343,2.343-2.343,6.142 0,8.485l15.718,15.718 17.105,17.105-9.429,9.429c-3.087,3.087-4.788,7.192-4.788,11.559 0,4.367 1.7,8.472 4.788,11.559l3.077,3.077c2.699,2.699 6.176,4.337 9.925,4.707 0.37,3.749 2.008,7.226 4.707,9.924l3.077,3.078c2.771,2.771 6.298,4.334 9.923,4.695 0.367,3.753 2.007,7.235 4.709,9.936l3.077,3.077c2.699,2.699 6.176,4.337 9.925,4.707 0.37,3.749 2.008,7.226 4.707,9.925l3.077,3.077c3.187,3.187 7.373,4.78 11.559,4.78s8.372-1.593 11.559-4.78l9.429-9.429 22.595,22.595c3.499,3.499 8.15,5.425 13.097,5.425s9.599-1.927 13.097-5.425c3.314-3.314 5.196-7.667 5.387-12.321 4.655-0.191 9.007-2.073 12.322-5.387 3.416-3.416 5.195-7.845 5.38-12.329 4.483-0.185 8.913-1.964 12.328-5.379 3.416-3.416 5.195-7.845 5.38-12.329 4.484-0.185 8.914-1.964 12.329-5.38 7.222-7.222 7.222-18.972 0-26.194l-8.315-8.315 30.423-30.423 21.156-21.156c7.031-7.033 7.031-18.476-0.001-25.508zm-225.444,86.866c-1.695-1.695-1.695-4.452 0-6.147l8.842-8.842 9.224,9.224-8.842,8.842c-1.694,1.695-4.453,1.694-6.147,0l-3.077-3.077zm17.709,17.709c-1.695-1.695-1.695-4.452 0-6.146l8.842-8.842 9.224,9.224-8.841,8.842c-1.695,1.694-4.454,1.695-6.147,0l-3.078-3.078zm17.708,17.709c-0.821-0.821-1.273-1.913-1.273-3.073s0.452-2.252 1.273-3.073l8.842-8.842 9.223,9.223-8.842,8.842c-1.694,1.694-4.452,1.694-6.146,0l-3.077-3.077zm26.933,20.786c-1.694,1.695-4.453,1.694-6.147,0l-3.077-3.077c-1.695-1.695-1.695-4.452 0-6.147l8.842-8.842 9.224,9.224-8.842,8.842zm103.029-74.469l-66.592-66.592c-0.998-0.998-2.314-1.612-3.72-1.734l-34.053-2.977c-0.177-0.016-0.353-0.023-0.527-0.023-2.829,0-5.308,1.995-5.877,4.815l-2.729,13.537c-1.706,8.462-9.974,13.958-18.442,12.253-4.099-0.826-7.632-3.2-9.946-6.683-2.314-3.483-3.134-7.659-2.307-11.759l2.729-13.536c4.066-20.169 23.774-33.275 43.951-29.204 0.042,0.008 0.085,0.017 0.128,0.024l58.306,10.439 7.179,7.179 58.081,58.081-26.181,26.18zm51.579-51.579l-16.914,16.914-58.081-58.081c-1.14-1.14-1.768-2.656-1.768-4.269s0.628-3.128 1.768-4.269l12.646-12.646c1.14-1.14 2.656-1.768 4.268-1.768s3.128,0.628 4.269,1.768l53.812,53.812c1.14,1.14 1.768,2.656 1.768,4.269s-0.628,3.13-1.768,4.27z"/>
    <circle cx="236.071" cy="91.787" r="6"/>
  </g>
</svg>
