<?xml version="1.0" encoding="iso-8859-1"?>
<!-- Generator: Adobe Illustrator 18.1.1, SVG Export Plug-In . SVG Version: 6.00 Build 0)  -->
<svg version="1.1" id="Capa_1" xmlns="http://www.w3.org/2000/svg" xmlns:xlink="http://www.w3.org/1999/xlink" x="0px" y="0px"
   viewBox="0 0 535.5 535.5" style="enable-background:new 0 0 535.5 535.5;" xml:space="preserve">
   <g>
      <g>
         <path d="M237.15,399.636c-31.824-2.854-60.282-8.361-85.374-16.521
			c-25.092-8.16-47.226-17.748-66.402-28.767c-19.176-11.016-35.7-22.947-49.572-35.802c-13.872-12.852-25.5-25.396-34.884-37.638
			c-0.408-2.04-0.612-4.185-0.612-6.427v-6.428v-1.224c10.608-0.816,24.378-2.346,41.31-4.59s34.986-5.917,54.162-11.016
			c19.176-5.1,38.862-11.73,59.058-19.89c20.196-8.16,39.066-18.564,56.61-31.212c3.672,1.632,7.446,2.958,11.322,3.978
			s8.058,1.53,12.546,1.53s8.874-0.612,13.158-1.836s8.466-2.856,12.546-4.896c12.239,12.648,26.521,25.092,42.841,37.332
			c10.605,8.16,21.52,14.892,32.738,20.196c11.223,5.306,22.746,9.792,34.578,13.464c4.488,11.426,11.629,20.196,21.42,26.316
			c-11.832,29.376-28.354,55.284-49.568,77.724c-4.488-3.264-9.59-5.916-15.303-7.956s-11.629-3.06-17.748-3.06
			c-12.646,0-23.662,3.57-33.049,10.71c-9.383,7.14-16.319,16.014-20.807,26.622h-9.486
			C246.636,400.248,243.474,400.044,237.15,399.636z M233.478,437.58c3.672,0.408,7.344,0.714,11.016,0.918
			c3.672,0.204,7.344,0.306,11.016,0.306c-31.416,16.729-60.486,27.336-87.21,31.824s-49.878,6.12-69.462,4.896
			c-20.4-16.729-37.944-35.805-52.632-57.225s-26.112-44.979-34.272-70.686c11.832,10.605,25.194,20.808,40.086,30.6
			s31.416,18.666,49.572,26.622s38.25,14.79,60.282,20.502C183.906,431.052,207.774,435.132,233.478,437.58z M309.978,477.972
			c13.871,0,26.012-4.485,36.414-13.464c10.404-8.976,17.033-19.992,19.893-33.048c34.68-6.936,64.359-16.728,89.045-29.376
			c24.684-12.647,45.594-26.112,62.729-40.392c-9.383,25.296-22.338,48.651-38.859,70.071c-16.523,21.42-35.699,39.78-57.527,55.08
			s-45.799,27.234-71.91,35.805c-26.111,8.565-53.449,12.852-82.008,12.852c-19.992,0-39.168-2.04-57.528-6.12
			s-36.108-9.996-53.244-17.748c18.36-2.447,37.842-6.936,58.446-13.464s41.922-16.116,63.954-28.764
			C288.761,475.116,298.962,477.972,309.978,477.972z M471.546,282.132c11.832-0.813,23.051-1.731,33.66-2.754
			c10.607-1.02,20.604-2.346,29.988-3.979c0,2.446-0.105,4.998-0.309,7.648c-0.205,2.652-0.307,5.406-0.307,8.262
			c-4.896,6.528-11.627,14.181-20.195,22.95c-8.566,8.772-19.176,17.748-31.824,26.931c-12.646,9.18-27.336,18.054-44.063,26.619
			c-16.729,8.568-35.699,15.708-56.916,21.422c10.609-12.647,19.891-26.012,27.846-40.088c7.957-14.073,14.791-28.659,20.502-43.758
			c8.568-0.813,16.422-3.264,23.563-7.344C460.632,293.964,466.65,288.66,471.546,282.132z M481.337,242.964
			c-0.814-8.976-3.57-17.136-8.262-24.48c-4.691-7.344-10.506-13.26-17.441-17.748c2.447-21.216,3.773-42.126,3.979-62.73
			s-0.512-40.086-2.145-58.446c20.811,20.808,37.74,44.472,50.797,70.992c13.059,26.52,21.42,55.08,25.094,85.68
			C517.853,239.496,500.513,241.74,481.337,242.964z M177.786,148.104c0,4.488,0.51,8.772,1.53,12.852s2.346,7.956,3.978,11.628
			c-14.688,9.792-30.396,18.054-47.124,24.786s-33.15,12.24-49.266,16.524s-31.518,7.548-46.206,9.792s-27.132,3.774-37.332,4.59
			c3.672-24.48,10.404-47.736,20.196-69.768s22.134-42.126,37.026-60.282s32.028-34.17,51.408-48.042
			c19.38-13.872,40.29-24.888,62.73-33.048c0.816,10.608,2.55,23.46,5.202,38.556c2.652,15.096,8.058,31.824,16.218,50.184
			c-5.712,5.304-10.2,11.628-13.464,18.972C179.418,132.192,177.786,139.944,177.786,148.104z M292.23,148.104
			c0-6.936-1.227-13.872-3.674-20.808c19.584-23.256,34.373-44.88,44.369-64.872s16.83-35.904,20.502-47.736
			c22.852,7.752,43.453,17.748,61.813,29.988c2.854,20.808,4.689,43.86,5.508,69.156s-0.203,51.408-3.059,78.336
			c-10.609,1.224-20.197,5.202-28.768,11.934c-8.564,6.732-14.688,14.994-18.357,24.786c-7.754-2.856-15.197-6.12-22.34-9.792
			c-7.141-3.672-14.178-8.16-21.111-13.464c-7.752-5.712-14.895-11.424-21.42-17.136c-6.529-5.712-12.648-11.424-18.361-17.136
			C290.597,163.608,292.23,155.856,292.23,148.104z M235.314,90.576c-1.632,0-2.856,0.204-3.672,0.612
			c-8.16-19.176-13.362-36.108-15.606-50.796S212.67,14.28,212.67,6.12c8.976-2.04,18.054-3.57,27.234-4.59
			C249.084,0.51,258.366,0,267.75,0c15.912,0,32.029,1.632,48.347,4.896c-3.264,9.792-8.975,22.848-17.135,39.168
			S278.97,78.336,263.465,97.92c-4.488-2.04-9.078-3.774-13.77-5.202C245.004,91.29,240.21,90.576,235.314,90.576z"/>
      </g>
   </g>
   <g>
   </g>
   <g>
   </g>
   <g>
   </g>
   <g>
   </g>
   <g>
   </g>
   <g>
   </g>
   <g>
   </g>
   <g>
   </g>
   <g>
   </g>
   <g>
   </g>
   <g>
   </g>
   <g>
   </g>
   <g>
   </g>
   <g>
   </g>
   <g>
   </g>
</svg>
