<?xml version="1.0" encoding="UTF-8"?><svg xmlns="http://www.w3.org/2000/svg" xmlns:xlink="http://www.w3.org/1999/xlink" version="1.1" id="Layer_1" x="0px" y="0px" width="92px" height="92px" viewBox="0 0 92 92" xml:space="preserve"><path id="XMLID_725_" d="M61.7 82.2c-.1 3-2.6 5.3-5.5 5.3H56c-3-.1-5.4-2.7-5.3-5.7.6-14.2-2.8-24.8-10.1-31.7C29 39.2 10.8 41 10.6 41c-3 .3-5.7-1.9-6.1-4.9-.3-3 1.8-5.7 4.9-6.1.9-.1 23.3-2.4 38.7 11.9 9.8 9.2 14.3 22.8 13.6 40.3zM18.5 60.9c-3.4 0-6.8 1.4-9.2 3.8-2.4 2.4-3.8 5.8-3.8 9.2s1.4 6.8 3.8 9.2c2.4 2.4 5.8 3.8 9.2 3.8 3.4 0 6.8-1.4 9.2-3.8 2.4-2.4 3.8-5.8 3.8-9.2s-1.4-6.8-3.8-9.2c-2.4-2.4-5.8-3.8-9.2-3.8zm48.6-38.7C44.2.9 10.8 4.7 9.3 4.8c-3 .4-5.2 3.1-4.8 6.1.4 3 3.1 5.2 6.1 4.8.3 0 29.8-3.3 49 14.5 12.1 11.2 17.7 28.5 16.7 51.5-.1 3 2.2 5.6 5.3 5.7h.2c2.9 0 5.4-2.3 5.5-5.3 1.2-26.2-5.6-46.4-20.2-59.9z"/><metadata><rdf:RDF xmlns:rdf="http://www.w3.org/1999/02/22-rdf-syntax-ns#" xmlns:rdfs="http://www.w3.org/2000/01/rdf-schema#" xmlns:dc="http://purl.org/dc/elements/1.1/"><rdf:Description about="https://iconscout.com/legal#licenses" dc:title="feed" dc:description="feed" dc:publisher="Iconscout" dc:date="2017-09-24" dc:format="image/svg+xml" dc:language="en"><dc:creator><rdf:Bag><rdf:li>Amit Jakhu</rdf:li></rdf:Bag></dc:creator></rdf:Description></rdf:RDF></metadata></svg>